<?xml version="1.0" encoding="UTF-8"?>
<svg width="18px" height="18px" viewBox="0 0 18 18" version="1.1" xmlns="http://www.w3.org/2000/svg" xmlns:xlink="http://www.w3.org/1999/xlink">
  <g id="Page-1" stroke="none" stroke-width="1" fill="none" fill-rule="evenodd">
    <g id="adiDT-icon-price-arrow">
      <g id="Group" stroke-width="1" fill-rule="evenodd" transform="translate(7.000000, 6.000000)" fill="#2F2F2B">
        <polygon id="Combined-Shape" points="4.22729183 3.26470588 1.05082124 0.0882352941 0.676470588 0.462585943 3.4852416 3.27135695 0.676470588 6.08012796 1.05082124 6.45447861 4.22729183 3.27800802 4.24059397 3.27800802 4.2339429 3.27135695 4.24059397 3.26470588"></polygon>
      </g>
      <path d="M9,18 C4.02943725,18 0,13.9705627 0,9 C0,4.02943725 4.02943725,0 9,0 C13.9705627,0 18,4.02943725 18,9 C18,13.9705627 13.9705627,18 9,18 Z M9,17.0526316 C13.4473456,17.0526316 17.0526316,13.4473456 17.0526316,9 C17.0526316,4.55265438 13.4473456,0.947368421 9,0.947368421 C4.55265438,0.947368421 0.947368421,4.55265438 0.947368421,9 C0.947368421,13.4473456 4.55265438,17.0526316 9,17.0526316 Z" id="Oval" fill="#CCCCCC" fill-rule="nonzero"></path>
    </g>
  </g>
</svg>
